<svg width="23" height="23" viewBox="0 0 23 23" fill="none" xmlns="http://www.w3.org/2000/svg">
<path d="M11.829 0.387939C5.78961 0.387939 0.89357 5.28398 0.89357 11.3234C0.89357 16.7401 4.83602 21.226 10.0052 22.0947V13.6049H7.36727V10.5497H10.0052V8.29698C10.0052 5.68316 11.6017 4.25878 13.9337 4.25878C15.0506 4.25878 16.0105 4.342 16.2891 4.37866V7.1108L14.6717 7.11158C13.4037 7.11158 13.1592 7.714 13.1592 8.59832V10.5482H16.1848L15.7902 13.6033H13.1592V22.1677C18.5698 21.5092 22.7644 16.909 22.7644 11.3203C22.7644 5.28398 17.8683 0.387939 11.829 0.387939Z" fill="white"/>
</svg>
