<svg width="23" height="23" viewBox="0 0 23 23" fill="none" xmlns="http://www.w3.org/2000/svg">
<g clip-path="url(#clip0)">
<path d="M13.3043 11.2772C13.3043 12.4332 12.3672 13.3703 11.2112 13.3703C10.0551 13.3703 9.11806 12.4332 9.11806 11.2772C9.11806 10.1212 10.0551 9.18408 11.2112 9.18408C12.3672 9.18408 13.3043 10.1212 13.3043 11.2772Z" fill="white"/>
<path d="M16.1064 7.57391C16.0057 7.30126 15.8452 7.05447 15.6366 6.8519C15.4341 6.64333 15.1875 6.48281 14.9146 6.38219C14.6934 6.29626 14.361 6.19397 13.7488 6.1661C13.0865 6.1359 12.8879 6.12939 11.2113 6.12939C9.53454 6.12939 9.33597 6.13574 8.67387 6.16594C8.06165 6.19397 7.7291 6.29626 7.50801 6.38219C7.23519 6.48281 6.9884 6.64333 6.786 6.8519C6.57742 7.05447 6.4169 7.30109 6.31612 7.57391C6.23019 7.79517 6.1279 8.12772 6.10003 8.73994C6.06983 9.40204 6.06332 9.60061 6.06332 11.2774C6.06332 12.954 6.06983 13.1526 6.10003 13.8149C6.1279 14.4271 6.23019 14.7595 6.31612 14.9807C6.4169 15.2535 6.57726 15.5001 6.78583 15.7027C6.9884 15.9113 7.23502 16.0718 7.50784 16.1724C7.7291 16.2585 8.06165 16.3608 8.67387 16.3887C9.33597 16.4189 9.53437 16.4252 11.2112 16.4252C12.8881 16.4252 13.0867 16.4189 13.7486 16.3887C14.3608 16.3608 14.6934 16.2585 14.9146 16.1724C15.4623 15.9612 15.8951 15.5283 16.1064 14.9807C16.1923 14.7595 16.2946 14.4271 16.3226 13.8149C16.3528 13.1526 16.3592 12.954 16.3592 11.2774C16.3592 9.60061 16.3528 9.40204 16.3226 8.73994C16.2947 8.12772 16.1925 7.79517 16.1064 7.57391ZM11.2113 14.5017C9.43041 14.5017 7.98673 13.0581 7.98673 11.2772C7.98673 9.49632 9.43041 8.0528 11.2113 8.0528C12.9921 8.0528 14.4357 9.49632 14.4357 11.2772C14.4357 13.0581 12.9921 14.5017 11.2113 14.5017ZM14.5632 8.67887C14.1471 8.67887 13.8097 8.34147 13.8097 7.92532C13.8097 7.50917 14.1471 7.17178 14.5632 7.17178C14.9794 7.17178 15.3168 7.50917 15.3168 7.92532C15.3166 8.34147 14.9794 8.67887 14.5632 8.67887Z" fill="white"/>
<path d="M11.2112 0.341797C5.17263 0.341797 0.275757 5.23867 0.275757 11.2772C0.275757 17.3157 5.17263 22.2126 11.2112 22.2126C17.2497 22.2126 22.1466 17.3157 22.1466 11.2772C22.1466 5.23867 17.2497 0.341797 11.2112 0.341797ZM17.4526 13.8661C17.4222 14.5345 17.3159 14.9909 17.1608 15.3903C16.8346 16.2338 16.1678 16.9006 15.3243 17.2268C14.925 17.382 14.4685 17.4881 13.8002 17.5186C13.1306 17.5492 12.9167 17.5565 11.2113 17.5565C9.50585 17.5565 9.2921 17.5492 8.62232 17.5186C7.95404 17.4881 7.49751 17.382 7.09821 17.2268C6.67905 17.0691 6.29961 16.822 5.98591 16.5025C5.66654 16.1889 5.41942 15.8093 5.26173 15.3903C5.10655 14.991 5.00026 14.5345 4.96989 13.8662C4.93902 13.1964 4.93185 12.9825 4.93185 11.2772C4.93185 9.57189 4.93902 9.35797 4.96973 8.68836C5.0001 8.01991 5.10622 7.56355 5.2614 7.16408C5.41908 6.74509 5.66637 6.36548 5.98591 6.05195C6.29944 5.73241 6.67905 5.48529 7.09804 5.32761C7.49751 5.17243 7.95387 5.0663 8.62232 5.03577C9.29193 5.00523 9.50585 4.99789 11.2112 4.99789C12.9165 4.99789 13.1304 5.00523 13.8 5.03593C14.4685 5.0663 14.9248 5.17243 15.3243 5.32744C15.7433 5.48512 16.1229 5.73241 16.4366 6.05195C16.756 6.36565 17.0033 6.74509 17.1608 7.16408C17.3161 7.56355 17.4222 8.01991 17.4528 8.68836C17.4833 9.35797 17.4905 9.57189 17.4905 11.2772C17.4905 12.9825 17.4833 13.1964 17.4526 13.8661Z" fill="white"/>
</g>
<defs>
<clipPath id="clip0">
<rect width="21.8708" height="21.8708" fill="white" transform="translate(0.275757 0.341797)"/>
</clipPath>
</defs>
</svg>
