<svg width="108" height="37" viewBox="0 0 108 37" fill="none" xmlns="http://www.w3.org/2000/svg">
<path d="M18.3675 2.98578C19.1181 2.98578 19.7265 2.40811 19.7265 1.69553C19.7265 0.982939 19.1181 0.405273 18.3675 0.405273C17.6171 0.405273 17.0087 0.982939 17.0087 1.69553C17.0087 2.40811 17.6171 2.98578 18.3675 2.98578Z" fill="#00B536"/>
<path d="M47.5844 22.5699H44.2115L48.7735 0.405273L56.3201 16.4182L63.9394 0.405273L68.0405 22.5699H64.6674L62.4593 10.1513L56.1502 22.7773L49.8897 10.1282L47.5844 22.5699Z" fill="white"/>
<path d="M69.7908 0.612635H73.3821L79.1087 14.4137L84.9568 0.405273L90.6107 14.4137L96.5316 0.635676H100.123L90.4166 22.5699L84.7626 7.96243L79.036 22.5699L69.7908 0.612635Z" fill="white"/>
<path d="M104.464 0.405273H107.788V22.5699H104.464V0.405273Z" fill="white"/>
<path fill-rule="evenodd" clip-rule="evenodd" d="M46.9272 35.0343C47.728 35.0343 48.2618 34.6888 48.4317 34.4124V34.9653H49.2082V28.491H48.4317V30.7029C48.1405 30.4264 47.6795 30.2421 46.9758 30.2421C45.6412 30.2421 44.5249 31.2327 44.5249 32.6613C44.5249 34.1358 45.5198 35.0343 46.9272 35.0343ZM48.4317 31.5784V33.4445C48.2376 33.8133 47.7523 34.3201 47.0243 34.3201C46.0536 34.3201 45.35 33.698 45.35 32.6383C45.35 31.6014 46.1507 30.9332 47.0728 30.9332C47.7038 30.9332 48.1405 31.1636 48.4317 31.5784Z" fill="white"/>
<path fill-rule="evenodd" clip-rule="evenodd" d="M51.5913 28.8377C51.5913 28.5842 51.3729 28.3999 51.106 28.3999C50.8148 28.3999 50.5964 28.5842 50.5964 28.8377C50.5964 29.1141 50.8148 29.2985 51.106 29.2985C51.3729 29.2985 51.5913 29.1141 51.5913 28.8377ZM51.47 30.3353H50.6934V34.9665H51.47V30.3353Z" fill="white"/>
<path fill-rule="evenodd" clip-rule="evenodd" d="M55.1758 36.8108C56.4133 36.8108 57.3597 36.1656 57.3597 34.5988V30.3134H56.5589V30.7281C56.3405 30.4747 55.831 30.2212 55.103 30.2212C53.7684 30.2212 52.6764 31.1199 52.6764 32.6174C52.6764 34.115 53.647 35.0136 55.103 35.0136C55.928 35.0136 56.2677 34.7831 56.5832 34.4376V34.7141C56.5832 35.5666 56.0979 36.0734 55.1516 36.0734C54.375 36.0734 53.914 35.7278 53.7198 35.3823L53.0162 35.6818C53.2831 36.373 54.1081 36.8108 55.1758 36.8108ZM56.5832 31.6036V33.4699C56.4133 33.9075 55.928 34.3453 55.2243 34.3223C54.1809 34.3223 53.5014 33.7002 53.5014 32.6405C53.5014 31.5345 54.3022 30.9354 55.2243 30.9354C55.8795 30.9354 56.3648 31.2349 56.5832 31.6036Z" fill="white"/>
<path fill-rule="evenodd" clip-rule="evenodd" d="M59.7415 28.8377C59.7415 28.5842 59.5231 28.3999 59.2562 28.3999C58.965 28.3999 58.7465 28.5842 58.7465 28.8377C58.7465 29.1141 58.965 29.2985 59.2562 29.2985C59.5231 29.2985 59.7415 29.1141 59.7415 28.8377ZM59.6202 30.3353H58.8436V34.9665H59.6202V30.3353Z" fill="white"/>
<path d="M60.5899 30.3328H61.6091V29.1577H62.3856V30.3328H64.0599V31.047H62.3856V33.0745C62.3856 33.9962 62.6525 34.2957 63.2348 34.2957C63.5747 34.2957 63.8417 34.1574 64.1086 33.9731L64.4723 34.526C64.1813 34.8256 63.6962 35.0099 63.0892 35.0099C62.1429 35.0099 61.6091 34.4108 61.6091 33.2589V31.047H60.5899V30.3328Z" fill="white"/>
<path fill-rule="evenodd" clip-rule="evenodd" d="M67.1941 30.2212C66.4907 30.2212 65.714 30.4977 65.2529 30.8894L65.6413 31.4424C66.1024 31.1199 66.5388 30.9354 67.0973 30.9354C68.1163 30.9354 68.4072 31.4885 68.4072 32.3179C68.165 32.2488 67.6311 32.1796 67.2668 32.1796C65.8595 32.1796 64.9373 32.5944 64.9373 33.6081C64.9373 34.4606 65.6413 35.0136 66.709 35.0136C67.5584 35.0136 68.1163 34.6679 68.4072 34.2763V34.9674H69.1839V32.0875C69.1839 30.9124 68.5046 30.2212 67.1941 30.2212ZM68.4072 32.986V33.4468C68.2377 33.8155 67.7039 34.3453 66.8785 34.3453C66.2232 34.3453 65.7627 34.069 65.7627 33.5851C65.7627 33.0321 66.3693 32.8478 67.3642 32.8478C67.7519 32.8478 68.165 32.9168 68.4072 32.986Z" fill="white"/>
<path d="M70.5899 28.4661H71.3666V34.9634H70.5899V28.4661Z" fill="white"/>
<path fill-rule="evenodd" clip-rule="evenodd" d="M77.7682 30.2212C77.0649 30.2212 76.2882 30.4977 75.8271 30.8894L76.2155 31.4424C76.6765 31.1199 77.113 30.9354 77.6715 30.9354C78.6904 30.9354 78.9814 31.4885 78.9814 32.3179C78.7391 32.2488 78.2053 32.1796 77.841 32.1796C76.4337 32.1796 75.5115 32.5944 75.5115 33.6081C75.5115 34.4606 76.2155 35.0136 77.2831 35.0136C78.1326 35.0136 78.6904 34.6679 78.9814 34.2763V34.9674H79.7581V32.0875C79.7581 30.9124 79.0788 30.2212 77.7682 30.2212ZM78.9814 32.986V33.4468C78.8119 33.8155 78.278 34.3453 77.4526 34.3453C76.798 34.3453 76.3369 34.069 76.3369 33.5851C76.3369 33.0321 76.9435 32.8478 77.9384 32.8478C78.3267 32.8478 78.7391 32.9168 78.9814 32.986Z" fill="white"/>
<path fill-rule="evenodd" clip-rule="evenodd" d="M83.3263 36.8108C84.5635 36.8108 85.5097 36.1656 85.5097 34.5988V30.3134H84.709V30.7281C84.4908 30.4747 83.9816 30.2212 83.2536 30.2212C81.919 30.2212 80.8267 31.1199 80.8267 32.6174C80.8267 34.115 81.7976 35.0136 83.2536 35.0136C84.0784 35.0136 84.418 34.7831 84.7336 34.4376V34.7141C84.7336 35.5666 84.2485 36.0734 83.3017 36.0734C82.5256 36.0734 82.0645 35.7278 81.8703 35.3823L81.1664 35.6818C81.4333 36.373 82.2587 36.8108 83.3263 36.8108ZM84.709 31.6036V33.4699C84.5635 33.9075 84.0784 34.3453 83.3504 34.3223C82.3068 34.3223 81.6275 33.7002 81.6275 32.6405C81.6275 31.5345 82.4282 30.9354 83.3504 30.9354C84.0056 30.9354 84.4908 31.2349 84.709 31.6036Z" fill="white"/>
<path fill-rule="evenodd" clip-rule="evenodd" d="M89.2017 35.0562C90.0025 35.0562 90.6818 34.7336 91.1428 34.0885L90.6331 33.6507C90.3421 34.0423 89.8083 34.3418 89.2257 34.3418C88.2308 34.3418 87.5028 33.8349 87.4547 32.8903H91.2883C91.337 32.6829 91.337 32.4986 91.337 32.3374C91.337 31.0471 90.3661 30.2407 89.0803 30.2407C87.4547 30.2407 86.6053 31.3006 86.6053 32.6599C86.6053 34.1115 87.6489 35.0562 89.2017 35.0562ZM90.5122 32.2223H87.4301C87.5515 31.4619 88.134 30.909 89.0316 30.932C89.9057 30.932 90.4635 31.3928 90.5122 32.2223Z" fill="white"/>
<path d="M92.4297 30.3328H93.2064V30.9319C93.522 30.4711 94.1773 30.2407 94.8806 30.2407C96.1424 30.2407 96.8464 30.8628 96.8464 32.3374V34.964H96.0697V32.4295C96.0697 31.4158 95.6086 30.955 94.6384 30.955C94.0318 30.955 93.4733 31.3236 93.2064 31.8996V34.964H92.4297V30.3328Z" fill="white"/>
<path d="M102.519 33.9998C102.155 34.668 101.282 35.0366 100.505 35.0366C98.9521 35.0366 97.9084 34.092 97.9084 32.6404C97.9084 31.2811 98.9274 30.2212 100.456 30.2212C101.33 30.2212 102.106 30.5899 102.422 31.1659L101.815 31.5576C101.476 31.1198 101.063 30.9355 100.456 30.9355C99.4612 30.9355 98.7092 31.6497 98.7092 32.6404C98.7092 33.6542 99.4372 34.3454 100.554 34.3454C101.135 34.3454 101.621 34.069 101.912 33.6312L102.519 33.9998Z" fill="white"/>
<path d="M103.76 36.0726C103.833 36.0956 103.881 36.1187 103.954 36.1187C104.318 36.1187 104.561 35.8883 104.9 35.151L105.046 34.8054L102.692 30.3586H103.615L105.434 33.8607L106.818 30.3586H107.667L105.823 34.9206C105.167 36.4873 104.658 36.8559 103.978 36.8559C103.784 36.8559 103.59 36.8099 103.444 36.7408L103.76 36.0726Z" fill="white"/>
<path d="M30.2363 22.5449H35.5505L36.7637 20.6095H28.8289L25.3589 29.7795L23.1507 26.001L19.3895 32.5213V4.61963H17.3512V36.5764H19.3895L23.1507 29.7565L25.4802 34.3876L26.0383 32.9821L26.5236 31.784" fill="white"/>
<path d="M6.52745 18.6511H1.18902L0 20.5865H7.93489L11.4048 11.3935L13.5888 15.1951L17.35 8.67474V36.5764H19.4125V4.61963H17.35L13.613 11.4395L11.2835 6.80845L10.7254 8.21393H10.7012L10.2401 9.38898V9.41198" fill="white"/>
</svg>
