<svg width="22" height="23" viewBox="0 0 22 23" fill="none" xmlns="http://www.w3.org/2000/svg">
<g clip-path="url(#clip0)">
<path d="M11.0679 22.2124C17.1073 22.2124 22.0032 17.3165 22.0032 11.2771C22.0032 5.2377 17.1073 0.341797 11.0679 0.341797C5.0285 0.341797 0.132599 5.2377 0.132599 11.2771C0.132599 17.3165 5.0285 22.2124 11.0679 22.2124Z" fill="white"/>
<path d="M17.7639 8.20059C17.2953 8.40839 16.7912 8.54893 16.2626 8.6117C16.8023 8.28831 17.2166 7.77661 17.4121 7.16589C16.907 7.4655 16.3474 7.68285 15.7522 7.8C15.2754 7.2922 14.5961 6.97485 13.8438 6.97485C12.4006 6.97485 11.23 8.14542 11.23 9.5887C11.23 9.79357 11.2532 9.99299 11.298 10.1844C9.12569 10.0754 7.19957 9.0349 5.91028 7.45302C5.68533 7.83899 5.55629 8.28831 5.55629 8.76726C5.55629 9.67389 6.01808 10.4743 6.71906 10.9429C6.29079 10.9294 5.88748 10.8119 5.53523 10.6156C5.53504 10.6267 5.53504 10.6378 5.53504 10.6487C5.53504 11.9152 6.43641 12.9716 7.63193 13.2115C7.41282 13.2716 7.18144 13.3033 6.94343 13.3033C6.77461 13.3033 6.61107 13.2871 6.45161 13.2567C6.78417 14.2949 7.74928 15.0507 8.89333 15.0719C7.99859 15.7731 6.87169 16.1909 5.64674 16.1909C5.43621 16.1909 5.22763 16.1786 5.02354 16.1542C6.17968 16.8961 7.55395 17.3287 9.02998 17.3287C13.8378 17.3287 16.467 13.3458 16.467 9.89143C16.467 9.77817 16.4645 9.66531 16.4594 9.55342C16.9706 9.185 17.4136 8.72476 17.7639 8.20059Z" fill="#19232E"/>
</g>
<defs>
<clipPath id="clip0">
<rect width="21.8708" height="21.8708" fill="white" transform="translate(0.129181 0.341797)"/>
</clipPath>
</defs>
</svg>
