<svg width="23" height="23" viewBox="0 0 23 23" fill="none" xmlns="http://www.w3.org/2000/svg">
<g clip-path="url(#clip0)">
<path d="M10.0846 13.3262L13.6418 11.2775L10.0846 9.22876V13.3262Z" fill="white"/>
<path d="M11.4468 0.341797C5.40826 0.341797 0.511383 5.23867 0.511383 11.2772C0.511383 17.3157 5.40826 22.2126 11.4468 22.2126C17.4853 22.2126 22.3822 17.3157 22.3822 11.2772C22.3822 5.23867 17.4853 0.341797 11.4468 0.341797ZM18.2798 11.2884C18.2798 11.2884 18.2798 13.5061 17.9984 14.5756C17.8407 15.1609 17.3792 15.6224 16.7939 15.78C15.7244 16.0614 11.4468 16.0614 11.4468 16.0614C11.4468 16.0614 7.18032 16.0614 6.09973 15.7688C5.51438 15.6113 5.05284 15.1496 4.89516 14.5642C4.61366 13.5061 4.61366 11.2772 4.61366 11.2772C4.61366 11.2772 4.61366 9.05962 4.89516 7.99021C5.05267 7.40486 5.52556 6.93198 6.09973 6.77446C7.16914 6.49296 11.4468 6.49296 11.4468 6.49296C11.4468 6.49296 15.7244 6.49296 16.7939 6.78564C17.3792 6.94316 17.8407 7.40486 17.9984 7.99021C18.2911 9.05962 18.2798 11.2884 18.2798 11.2884Z" fill="white"/>
</g>
<defs>
<clipPath id="clip0">
<rect width="21.8708" height="21.8708" fill="white" transform="translate(0.511383 0.341797)"/>
</clipPath>
</defs>
</svg>
