<svg width="21" height="21" viewBox="0 0 21 21" fill="none" xmlns="http://www.w3.org/2000/svg">
<path d="M20.7497 19.5427L15.8553 14.6483C15.5218 14.3148 14.9817 14.3148 14.6482 14.6483C14.3147 14.9815 14.3147 15.5222 14.6482 15.8554L19.5426 20.7498C19.7093 20.9165 19.9276 20.9999 20.1461 20.9999C20.3644 20.9999 20.5829 20.9165 20.7497 20.7498C21.0832 20.4166 21.0832 19.8759 20.7497 19.5427Z" fill="#DBDBDB"/>
<path d="M9.2479 0C4.14874 0 0 4.1488 0 9.24802C0 14.3475 4.14874 18.496 9.2479 18.496C14.3473 18.496 18.4958 14.3475 18.4958 9.24802C18.4958 4.1488 14.3473 0 9.2479 0ZM9.2479 16.7887C5.09005 16.7887 1.7073 13.406 1.7073 9.24806C1.7073 5.09016 5.09005 1.70733 9.2479 1.70733C13.4057 1.70733 16.7885 5.09011 16.7885 9.24802C16.7885 13.4059 13.4057 16.7887 9.2479 16.7887Z" fill="#DBDBDB"/>
</svg>
